<svg width="38" height="22" viewBox="0 0 38 22" fill="none" xmlns="http://www.w3.org/2000/svg">
<path d="M36.6985 0.899479C37.87 2.07105 37.87 3.97055 36.6985 5.14212L21.1421 20.6985C19.9705 21.87 18.0711 21.87 16.8995 20.6985C15.7279 19.5269 15.7279 17.6274 16.8995 16.4558L32.4558 0.899479C33.6274 -0.272094 35.5269 -0.272094 36.6985 0.899479Z" fill="white"/>
<path d="M20.6776 20.6776C19.506 21.8492 17.6066 21.8492 16.435 20.6776L0.878632 5.1213C-0.292941 3.94973 -0.292941 2.05023 0.878632 0.878658C2.0502 -0.292915 3.9497 -0.292915 5.12127 0.878658L20.6776 16.435C21.8492 17.6066 21.8492 19.5061 20.6776 20.6776Z" fill="white"/>
</svg>
